<?xml version="1.0" encoding="UTF-8" standalone="no"?>
<!DOCTYPE svg PUBLIC "-//W3C//DTD SVG 1.1//EN" "http://www.w3.org/Graphics/SVG/1.1/DTD/svg11.dtd">
<svg version="1.1" xmlns="http://www.w3.org/2000/svg" xmlns:xlink="http://www.w3.org/1999/xlink" preserveAspectRatio="xMidYMid meet" viewBox="0 0 82.57 35.93" width="82.57" height="35.93"><defs><path d="M3.01 8.13L4.4 28.08L6.76 32.93L77.93 32.94L79.57 27.8L78.17 7.86L75.82 3L4.65 3L3.01 8.13Z" id="aLlPMTv3W"></path><mask id="maska2o3VI3VG" x="1.01" y="1" width="80.56" height="33.93" maskUnits="userSpaceOnUse"><rect x="1.01" y="1" width="80.56" height="33.93" fill="white"></rect><use xlink:href="#aLlPMTv3W" opacity="1" fill="black"></use></mask><path d="M64.62 28.85L67.61 28.64L69.25 23.52L68.72 16.04L71.57 20.85L73.71 15.69L74.59 28.15L6.75 32.94L77.93 32.94L79.58 27.8L78.17 7.85L75.82 3L72.83 3.22L70.69 8.38L67.84 3.57L62.86 3.92L64.62 28.85Z" id="g4yTOjwAXL"></path><linearGradient id="gradientbSwEgI5SW" gradientUnits="userSpaceOnUse" x1="4.68" y1="3.07" x2="78.07" y2="33.07"><stop style="stop-color: #f9dd6c;stop-opacity: 1" offset="0%"></stop><stop style="stop-color: #e29352;stop-opacity: 1" offset="100%"></stop></linearGradient><path d="M48.24 9.96L49.65 29.91L64.62 28.86L62.85 3.92L59.87 4.14L58.22 9.26L59.28 24.23L54.28 24.58L52.88 4.62L49.89 4.83L48.24 9.96Z" id="cEpYskeaM"></path><linearGradient id="gradientbn4Fx2S9M" gradientUnits="userSpaceOnUse" x1="47.61" y1="0.87" x2="64.24" y2="29.01"><stop style="stop-color: #f9dd6c;stop-opacity: 1" offset="0%"></stop><stop style="stop-color: #e29352;stop-opacity: 1" offset="100%"></stop></linearGradient><path d="M34.68 30.96L49.65 29.91L49.3 24.92L39.33 25.63L38.27 10.66L35.93 5.82L32.93 6.03L34.68 30.96Z" id="a1LfRO9Eo"></path><linearGradient id="gradientb4JGHGj3d0" gradientUnits="userSpaceOnUse" x1="32.65" y1="1.93" x2="49.28" y2="30.06"><stop style="stop-color: #f9dd6c;stop-opacity: 1" offset="0%"></stop><stop style="stop-color: #e29352;stop-opacity: 1" offset="100%"></stop></linearGradient><path d="M19.73 32.02L22.71 31.81L24.36 26.68L24.01 21.69L29 21.34L29.35 26.33L31.69 31.18L34.68 30.97L32.93 6.03L29.94 6.24L28.29 11.37L28.64 16.35L23.66 16.7L23.31 11.72L20.96 6.87L17.97 7.08L19.73 32.02Z" id="bor8zkmzn"></path><linearGradient id="gradienth1ipGTfiM" gradientUnits="userSpaceOnUse" x1="17.69" y1="2.98" x2="34.31" y2="31.11"><stop style="stop-color: #f9dd6c;stop-opacity: 1" offset="0%"></stop><stop style="stop-color: #e29352;stop-opacity: 1" offset="100%"></stop></linearGradient><path d="" id="b1sIc4LAJd"></path><linearGradient id="gradientc1r8OfQBxT" gradientUnits="userSpaceOnUse" x1="39.53" y1="8.55" x2="39.53" y2="8.55"><stop style="stop-color: #f9dd6c;stop-opacity: 1" offset="0%"></stop><stop style="stop-color: #e29352;stop-opacity: 1" offset="100%"></stop></linearGradient><path d="M6.75 32.94L19.72 32.02L18.49 14.56L8.52 15.26L7.99 7.78L17.96 7.08L75.82 3.01L4.65 3.01L3 8.13L3.53 15.61L5.87 20.47L13.85 19.9L14.38 27.38L4.41 28.08L6.75 32.94Z" id="adj9WZnYs"></path><linearGradient id="gradientaQVQ8WLM" gradientUnits="userSpaceOnUse" x1="2.34" y1="-1.77" x2="75.72" y2="28.22"><stop style="stop-color: #f9dd6c;stop-opacity: 1" offset="0%"></stop><stop style="stop-color: #e29352;stop-opacity: 1" offset="100%"></stop></linearGradient></defs><g><g><g><use xlink:href="#aLlPMTv3W" opacity="1" fill="#36688b" fill-opacity="1"></use><g mask="url(#maska2o3VI3VG)"><use xlink:href="#aLlPMTv3W" opacity="1" fill-opacity="0" stroke="#000000" stroke-width="2" stroke-opacity="1"></use></g><g><filter id="shadow8793516" x="-12.99" y="-13" width="108.56" height="61.93" filterUnits="userSpaceOnUse" primitiveUnits="userSpaceOnUse"><feFlood></feFlood><feComposite in2="SourceAlpha" operator="out"></feComposite><feGaussianBlur stdDeviation="2"></feGaussianBlur><feOffset dx="0" dy="0" result="afterOffset"></feOffset><feFlood flood-color="#000000" flood-opacity="1"></feFlood><feComposite in2="afterOffset" operator="in"></feComposite><feMorphology operator="dilate" radius="3"></feMorphology><feComposite in2="SourceAlpha" operator="in"></feComposite></filter><path d="M3.01 8.13L4.4 28.08L6.76 32.93L77.93 32.94L79.57 27.8L78.17 7.86L75.82 3L4.65 3L3.01 8.13Z" id="dZkED8mgm" fill="white" fill-opacity="1" filter="url(#shadow8793516)"></path></g></g><g><g><g><filter id="shadow15438985" x="-1.25" y="-5" width="88.82" height="45.93" filterUnits="userSpaceOnUse" primitiveUnits="userSpaceOnUse"><feFlood></feFlood><feComposite in2="SourceAlpha" operator="in"></feComposite><feGaussianBlur stdDeviation="1"></feGaussianBlur><feOffset dx="0" dy="0" result="afterOffset"></feOffset><feFlood flood-color="#000000" flood-opacity="0.5"></feFlood><feComposite in2="afterOffset" operator="in"></feComposite><feMorphology operator="dilate" radius="1"></feMorphology><feComposite in2="SourceAlpha" operator="out"></feComposite></filter><path d="M64.62 28.85L67.61 28.64L69.25 23.52L68.72 16.04L71.57 20.85L73.71 15.69L74.59 28.15L6.75 32.94L77.93 32.94L79.58 27.8L78.17 7.85L75.82 3L72.83 3.22L70.69 8.38L67.84 3.57L62.86 3.92L64.62 28.85Z" id="c1apiHVE8d" fill="white" fill-opacity="1" filter="url(#shadow15438985)"></path></g><use xlink:href="#g4yTOjwAXL" opacity="1" fill="url(#gradientbSwEgI5SW)"></use><g><use xlink:href="#g4yTOjwAXL" opacity="1" fill-opacity="0" stroke="#000000" stroke-width="1" stroke-opacity="1"></use></g></g><g><g><filter id="shadow14088899" x="40.24" y="-4.08" width="32.37" height="42" filterUnits="userSpaceOnUse" primitiveUnits="userSpaceOnUse"><feFlood></feFlood><feComposite in2="SourceAlpha" operator="in"></feComposite><feGaussianBlur stdDeviation="1"></feGaussianBlur><feOffset dx="0" dy="0" result="afterOffset"></feOffset><feFlood flood-color="#000000" flood-opacity="0.5"></feFlood><feComposite in2="afterOffset" operator="in"></feComposite><feMorphology operator="dilate" radius="1"></feMorphology><feComposite in2="SourceAlpha" operator="out"></feComposite></filter><path d="M48.24 9.96L49.65 29.91L64.62 28.86L62.85 3.92L59.87 4.14L58.22 9.26L59.28 24.23L54.28 24.58L52.88 4.62L49.89 4.83L48.24 9.96Z" id="aV5ar34WY" fill="white" fill-opacity="1" filter="url(#shadow14088899)"></path></g><use xlink:href="#cEpYskeaM" opacity="1" fill="url(#gradientbn4Fx2S9M)"></use><g><use xlink:href="#cEpYskeaM" opacity="1" fill-opacity="0" stroke="#000000" stroke-width="1" stroke-opacity="1"></use></g></g><g><g><filter id="shadow15072395" x="24.93" y="-2.18" width="32.72" height="41.14" filterUnits="userSpaceOnUse" primitiveUnits="userSpaceOnUse"><feFlood></feFlood><feComposite in2="SourceAlpha" operator="in"></feComposite><feGaussianBlur stdDeviation="1"></feGaussianBlur><feOffset dx="0" dy="0" result="afterOffset"></feOffset><feFlood flood-color="#000000" flood-opacity="0.5"></feFlood><feComposite in2="afterOffset" operator="in"></feComposite><feMorphology operator="dilate" radius="1"></feMorphology><feComposite in2="SourceAlpha" operator="out"></feComposite></filter><path d="M34.68 30.96L49.65 29.91L49.3 24.92L39.33 25.63L38.27 10.66L35.93 5.82L32.93 6.03L34.68 30.96Z" id="c75LdobJ5" fill="white" fill-opacity="1" filter="url(#shadow15072395)"></path></g><use xlink:href="#a1LfRO9Eo" opacity="1" fill="url(#gradientb4JGHGj3d0)"></use><g><use xlink:href="#a1LfRO9Eo" opacity="1" fill-opacity="0" stroke="#000000" stroke-width="1" stroke-opacity="1"></use></g></g><g><g><filter id="shadow9762223" x="9.97" y="-1.97" width="32.72" height="41.99" filterUnits="userSpaceOnUse" primitiveUnits="userSpaceOnUse"><feFlood></feFlood><feComposite in2="SourceAlpha" operator="in"></feComposite><feGaussianBlur stdDeviation="1"></feGaussianBlur><feOffset dx="0" dy="0" result="afterOffset"></feOffset><feFlood flood-color="#000000" flood-opacity="0.5"></feFlood><feComposite in2="afterOffset" operator="in"></feComposite><feMorphology operator="dilate" radius="1"></feMorphology><feComposite in2="SourceAlpha" operator="out"></feComposite></filter><path d="M19.73 32.02L22.71 31.81L24.36 26.68L24.01 21.69L29 21.34L29.35 26.33L31.69 31.18L34.68 30.97L32.93 6.03L29.94 6.24L28.29 11.37L28.64 16.35L23.66 16.7L23.31 11.72L20.96 6.87L17.97 7.08L19.73 32.02Z" id="a8LDlQvbYo" fill="white" fill-opacity="1" filter="url(#shadow9762223)"></path></g><use xlink:href="#bor8zkmzn" opacity="1" fill="url(#gradienth1ipGTfiM)"></use><g><use xlink:href="#bor8zkmzn" opacity="1" fill-opacity="0" stroke="#000000" stroke-width="1" stroke-opacity="1"></use></g></g><g><g><filter id="shadow15179694" x="31.53" y="0.55" width="16" height="16" filterUnits="userSpaceOnUse" primitiveUnits="userSpaceOnUse"><feFlood></feFlood><feComposite in2="SourceAlpha" operator="in"></feComposite><feGaussianBlur stdDeviation="1"></feGaussianBlur><feOffset dx="0" dy="0" result="afterOffset"></feOffset><feFlood flood-color="#000000" flood-opacity="0.5"></feFlood><feComposite in2="afterOffset" operator="in"></feComposite><feMorphology operator="dilate" radius="1"></feMorphology><feComposite in2="SourceAlpha" operator="out"></feComposite></filter><path d="" id="atoNC78Cg" fill="none" stroke="white" filter="url(#shadow15179694)"></path></g><use xlink:href="#b1sIc4LAJd" opacity="1" fill="url(#gradientc1r8OfQBxT)"></use><g><use xlink:href="#b1sIc4LAJd" opacity="1" fill-opacity="0" stroke="#000000" stroke-width="1" stroke-opacity="1"></use></g></g><g><g><filter id="shadow9032136" x="-5" y="-4.99" width="88.82" height="45.93" filterUnits="userSpaceOnUse" primitiveUnits="userSpaceOnUse"><feFlood></feFlood><feComposite in2="SourceAlpha" operator="in"></feComposite><feGaussianBlur stdDeviation="1"></feGaussianBlur><feOffset dx="0" dy="0" result="afterOffset"></feOffset><feFlood flood-color="#000000" flood-opacity="0.5"></feFlood><feComposite in2="afterOffset" operator="in"></feComposite><feMorphology operator="dilate" radius="1"></feMorphology><feComposite in2="SourceAlpha" operator="out"></feComposite></filter><path d="M6.75 32.94L19.72 32.02L18.49 14.56L8.52 15.26L7.99 7.78L17.96 7.08L75.82 3.01L4.65 3.01L3 8.13L3.53 15.61L5.87 20.47L13.85 19.9L14.38 27.38L4.41 28.08L6.75 32.94Z" id="aA3Tow1Nv" fill="white" fill-opacity="1" filter="url(#shadow9032136)"></path></g><use xlink:href="#adj9WZnYs" opacity="1" fill="url(#gradientaQVQ8WLM)"></use><g><use xlink:href="#adj9WZnYs" opacity="1" fill-opacity="0" stroke="#000000" stroke-width="1" stroke-opacity="1"></use></g></g></g></g></g></svg>